<svg width="120" height="32" viewBox="0 0 120 32" fill="none" xmlns="http://www.w3.org/2000/svg">
<g clip-path="url(#clip0_4681_68)">
<path fill-rule="evenodd" clip-rule="evenodd" d="M56.822 5.78003H52.4659L44 25.7828H48.3331L50.075 21.6663H59.2128L60.9547 25.7828H65.2878L56.822 5.78003ZM54.6435 10.8711L51.7682 17.6659H57.5197L54.6435 10.8711ZM91.8712 9.11383C87.1061 9.11383 83.2289 13.0017 83.2289 17.7821C83.2289 22.5624 87.1061 26.4503 91.8712 26.4503C96.6364 26.4503 100.514 22.5624 100.514 17.7821C100.514 13.0017 96.6364 9.11383 91.8712 9.11383ZM96.857 17.7812C96.857 20.5433 94.6242 22.7819 91.8712 22.7819C89.1182 22.7819 86.8855 20.5433 86.8855 17.7812C86.8855 15.019 89.1182 12.7805 91.8712 12.7805C94.6242 12.7805 96.857 15.019 96.857 17.7812ZM119.785 16.5623H119.791V25.7828H115.803V16.7827C115.803 14.5801 114.051 12.7823 111.814 12.7823C109.578 12.7823 107.826 14.6695 107.826 16.6591V25.7828H103.837V9.78133H107.826V11.1145C108.993 9.95189 110.617 9.29453 112.483 9.29453C116.733 9.29453 119.638 12.2024 119.785 16.5623ZM82.3179 25.7828L76.7678 17.8328L82.3896 9.78041H77.5197L74.3328 14.3459L71.1459 9.78041H66.276L71.8978 17.8328L66.3477 25.7828H71.2167L74.3319 21.3206L77.4471 25.7828H82.3179Z" fill="white"/>
<path d="M15.9787 19.885C14.4817 19.8827 12.9846 20.0021 11.4964 20.2441L6.16162 29.4197C9.25678 27.801 12.619 27.1067 15.9956 27.1091C19.3834 27.1067 22.7448 27.7946 25.8488 29.4253L20.5188 20.2585C19.0234 20.0116 17.5055 19.885 15.9795 19.885H15.9787Z" fill="url(#paint0_linear_4681_68)"/>
<path d="M20.5174 20.2578C23.8411 20.8048 27.0549 21.941 30.0154 23.582C32.8652 25.1617 32.3472 28.3529 30.3425 29.6539L30.0033 29.8482C28.9794 30.3625 27.6443 30.4087 26.1985 29.6141C26.0815 29.5496 25.9644 29.4875 25.8473 29.4254L20.5166 20.2578H20.5174Z" fill="url(#paint1_linear_4681_68)"/>
<path d="M11.4965 20.2441C8.25217 20.772 5.05037 21.882 1.98408 23.5819C-0.844865 25.1504 -0.35413 28.309 1.61522 29.6259L2.04101 29.8703C3.05856 30.3632 4.37521 30.3966 5.7993 29.614C5.91958 29.5479 6.04066 29.4834 6.16174 29.4197L11.4965 20.2441Z" fill="url(#paint2_linear_4681_68)"/>
<path d="M19.1183 7.13621C19.7622 6.02867 19.7405 4.7205 19.1768 3.6687L31.5021 24.8671C31.6449 25.1123 31.7547 25.3679 31.8333 25.6282C31.5711 24.8511 30.9906 24.1226 30.0163 23.5828C27.0559 21.9418 23.8412 20.8056 20.5183 20.2586L16.0039 12.4947L19.1183 7.1378V7.13621Z" fill="url(#paint3_linear_4681_68)"/>
<path d="M16.0027 12.4931L12.8883 7.13621C12.2444 6.02867 12.266 4.7205 12.8297 3.6687L0.504421 24.8671C0.388954 25.0653 0.295137 25.2699 0.222168 25.4778C0.506024 24.7572 1.07294 24.0876 1.98384 23.582C5.05013 21.8813 8.25194 20.7713 11.4962 20.2443L16.0027 12.4931Z" fill="url(#paint4_linear_4681_68)"/>
<path d="M19.1765 3.66864C19.741 4.72044 19.7627 6.02862 19.118 7.13615L16.0036 12.4931L12.8884 7.13615C12.2445 6.02862 12.2661 4.72044 12.8306 3.66864L12.8908 3.56593C13.5547 2.42257 14.7607 1.78242 16.0012 1.78003C17.2432 1.78003 18.4508 2.42098 19.1164 3.56593L19.1765 3.66864Z" fill="url(#paint5_linear_4681_68)"/>
</g>
<defs>
<linearGradient id="paint0_linear_4681_68" x1="25.848" y1="24.6552" x2="6.16162" y2="24.6552" gradientUnits="userSpaceOnUse">
<stop stop-color="#0D7CFF"/>
<stop offset="0.5" stop-color="#2A3EFA"/>
<stop offset="1" stop-color="#2F1AD5"/>
</linearGradient>
<linearGradient id="paint1_linear_4681_68" x1="30.1501" y1="29.7646" x2="24.0317" y2="19.0159" gradientUnits="userSpaceOnUse">
<stop stop-color="#23D8FF"/>
<stop offset="1" stop-color="#0274FF"/>
</linearGradient>
<linearGradient id="paint2_linear_4681_68" x1="8.14553" y1="18.8874" x2="1.63422" y2="30.2621" gradientUnits="userSpaceOnUse">
<stop stop-color="#3E42FF"/>
<stop offset="1" stop-color="#5342FB"/>
</linearGradient>
<linearGradient id="paint3_linear_4681_68" x1="16.3439" y1="5.77309" x2="28.6121" y2="27.4505" gradientUnits="userSpaceOnUse">
<stop stop-color="#3A26ED"/>
<stop offset="0.5" stop-color="#3953FF"/>
<stop offset="0.8" stop-color="#1E90FF"/>
<stop offset="1" stop-color="#19B6FF"/>
</linearGradient>
<linearGradient id="paint4_linear_4681_68" x1="15.7348" y1="5.76035" x2="3.82392" y2="26.6221" gradientUnits="userSpaceOnUse">
<stop stop-color="#029AFF"/>
<stop offset="0.2" stop-color="#0185FF"/>
<stop offset="0.5" stop-color="#0847FF"/>
<stop offset="1" stop-color="#480FE9"/>
</linearGradient>
<linearGradient id="paint5_linear_4681_68" x1="18.1838" y1="2.49025" x2="13.9149" y2="8.89819" gradientUnits="userSpaceOnUse">
<stop stop-color="#01E6FF"/>
<stop offset="1" stop-color="#1093FF"/>
</linearGradient>
<clipPath id="clip0_4681_68">
<rect width="120" height="32" fill="white"/>
</clipPath>
</defs>
</svg>
